<?xml version="1.0" encoding="utf-8"?>
<!-- Generator: Adobe Illustrator 21.1.0, SVG Export Plug-In . SVG Version: 6.00 Build 0)  -->
<svg version="1.1" id="Calque_1" xmlns="http://www.w3.org/2000/svg" xmlns:xlink="http://www.w3.org/1999/xlink" x="0px" y="0px"
	 viewBox="0 0 472 892" style="enable-background:new 0 0 472 892;" xml:space="preserve">
<style type="text/css">
	.st0{fill:#F59D36;}
	.st1{fill:url(#SVGID_1_);}
	.st2{fill:url(#SVGID_2_);}
	.st3{fill:url(#SVGID_3_);}
	.st4{fill:url(#SVGID_4_);}
	.st5{fill:url(#SVGID_5_);}
</style>
<g>
	<g>
		<path class="st0" d="M377.6,528.3c17.5-29,26.4-58.3,26.4-87.3s-8.9-58.3-26.4-87.3c-12.8-21.2-30.4-42.4-52.2-62.8
			c-20.5-19.3-41-34.3-55.1-43.9c14.1-9.6,34.6-24.6,55.1-43.9c21.8-20.5,39.4-41.6,52.2-62.8c17.5-29,26.4-58.3,26.4-87.3h-40
			c0,92.4-126.3,167.6-131.8,170.9l-0.2-0.1l-0.2,0.1C226.3,220.6,100,145.4,100,53H60c0,28.9,8.9,58.3,26.4,87.3
			c12.8,21.2,30.4,42.4,52.2,62.8c20.5,19.3,41,34.3,55.1,43.9c-14.1,9.6-34.6,24.6-55.1,43.9c-21.8,20.5-39.4,41.6-52.2,62.8
			C68.9,382.7,60,412.1,60,441s8.9,58.3,26.4,87.3c12.8,21.2,30.4,42.4,52.2,62.8c20.5,19.3,41,34.3,55.1,43.9
			c-14.1,9.6-34.6,24.6-55.1,43.9c-21.8,20.5-39.4,41.6-52.2,62.8C68.9,770.7,60,800.1,60,829h40c0-92.4,126.3-167.6,131.8-170.9
			l0.2,0.1l0.2-0.1C237.7,661.4,364,736.6,364,829h40c0-28.9-8.9-58.3-26.4-87.3c-12.8-21.2-30.4-42.4-52.2-62.8
			c-20.5-19.3-41-34.3-55.1-43.9c14.1-9.6,34.6-24.6,55.1-43.9C347.2,570.6,364.8,549.5,377.6,528.3z M232.2,611.9l-0.2-0.1
			l-0.2,0.1C226.3,608.6,100,533.4,100,441s126.3-167.6,131.8-170.9l0.2,0.1l0.2-0.1C237.7,273.4,364,348.6,364,441
			S237.7,608.6,232.2,611.9z"/>
	</g>
	<path class="st0" d="M191.6,324h80.8c-16-13.7-31-24.2-40.4-30.4C222.6,299.8,207.6,310.3,191.6,324z"/>
	<path class="st0" d="M177.6,749.6c-6.1,5.8-12.4,12.3-18.6,19.4H305c-5.5-6.3-11.6-12.7-18.6-19.4c-4.3-4.1-8.6-7.9-12.8-11.6
		h-83.1C186.2,741.7,181.9,745.5,177.6,749.6z"/>
	<path class="st0" d="M126.1,473c3.4,9.4,8.5,19.7,16,31h179.8c6.5-9.8,12.2-20.2,16.1-31H126.1z"/>
	<path class="st0" d="M161.7,353c-8.4,9.4-16.6,19.8-23.4,31h187.5c-5.9-9.7-13.5-20-23.4-31H161.7z"/>
	<path class="st0" d="M140.1,113c6.2,9.7,14.1,20,24.3,31h135.1c8.6-9.3,17.1-19.7,24.3-31H140.1z"/>
	<path class="st0" d="M165.3,533c3.8,4.1,7.9,8.2,12.3,12.4c7.1,6.8,14.3,13,21.2,18.6h66.4c6.9-5.6,14-11.8,21.2-18.6
		c4-3.8,8.2-8,12.3-12.4H165.3z"/>
	<path class="st0" d="M125.7,84h212.6c3.6-10,5.7-20.4,5.7-31H120C120,61.5,121.4,71.9,125.7,84z"/>
	<path class="st0" d="M120,441c0,1,0,2,0.1,3h223.9c0-1,0.1-2,0.1-3c0-7.8-1.2-17.2-4.7-28H124.7C121.7,422.1,120,431.5,120,441z"/>
	<path class="st0" d="M340.2,829c-2.7-9.3-7.1-19.6-13.9-31H137.7c-5.9,9.8-10.8,20.2-13.9,31H340.2z"/>
	<path class="st0" d="M204.6,708h54.2c-10.7-9.2-20.8-16.2-27.1-20.4C225.4,691.8,215.3,698.8,204.6,708z"/>
	<path class="st0" d="M258.8,174h-54.2c10.7,9.2,20.8,16.2,27.1,20.4C238,190.2,248.1,183.2,258.8,174z"/>
	<linearGradient id="SVGID_1_" gradientUnits="userSpaceOnUse" x1="281.9046" y1="211.0388" x2="242.319" y2="244.5343">
		<stop  offset="0" style="stop-color:#F59D36;stop-opacity:0"/>
		<stop  offset="0.9988" style="stop-color:#E86E01"/>
	</linearGradient>
	<path class="st1" d="M269,247l1.9-0.5c8.1-5.5,18.3-12.8,29.3-21.7L267,200c-18.7,14.2-33.1,22.8-34.8,23.8l-0.1,0L232,224L269,247
		z"/>
	<linearGradient id="SVGID_2_" gradientUnits="userSpaceOnUse" x1="192" y1="247" x2="192" y2="247">
		<stop  offset="0" style="stop-color:#F59D36;stop-opacity:0"/>
		<stop  offset="0.9988" style="stop-color:#F75D1E"/>
	</linearGradient>
	<path class="st2" d="M192,247"/>
	<linearGradient id="SVGID_3_" gradientUnits="userSpaceOnUse" x1="281.6546" y1="597.7073" x2="257.665" y2="620.6307">
		<stop  offset="0" style="stop-color:#F59D36;stop-opacity:0"/>
		<stop  offset="0.9988" style="stop-color:#E86E01"/>
	</linearGradient>
	<path class="st3" d="M270.9,634.5c8.6-5.9,19.6-13.8,31.4-23.4l-31.8-25.8c-20.3,15.8-36.4,25.4-38.3,26.5l-0.1,0L232,612l37,23
		L270.9,634.5z"/>
	<linearGradient id="SVGID_4_" gradientUnits="userSpaceOnUse" x1="170.1002" y1="669.2015" x2="214.7668" y2="649.2015">
		<stop  offset="0" style="stop-color:#F59D36;stop-opacity:0"/>
		<stop  offset="0.9988" style="stop-color:#E86E01"/>
	</linearGradient>
	<path class="st4" d="M193,635.6c-7.8,5.3-17.4,12.2-27.9,20.6l36.5,22.4c16.4-12.2,28.7-19.5,30.3-20.4l0.1,0l0.1-0.2L193,635.6z"
		/>
	<linearGradient id="SVGID_5_" gradientUnits="userSpaceOnUse" x1="219.5689" y1="254.7613" x2="188.9023" y2="274.7613">
		<stop  offset="0" style="stop-color:#F59D36;stop-opacity:0"/>
		<stop  offset="0.9988" style="stop-color:#E86E01"/>
	</linearGradient>
	<path class="st5" d="M162.2,270.4l33.9,24.2c19.1-14.6,33.9-23.5,35.7-24.5l0.1,0l0.1-0.2l-39-22.4
		C184.5,253.3,173.8,261.1,162.2,270.4z"/>
</g>
</svg>
